<svg xmlns="http://www.w3.org/2000/svg" xmlns:xlink="http://www.w3.org/1999/xlink" width="1366" zoomAndPan="magnify" viewBox="0 0 1024.5 576" height="768" preserveAspectRatio="xMidYMid meet" version="1.2"><defs><clipPath id="b8d34f1675"><path d="M 0 0.140625 L 1024 0.140625 L 1024 575.859375 L 0 575.859375 Z M 0 0.140625 "/></clipPath><clipPath id="65c448fbb0"><path d="M 0 288 L 1024 288 L 1024 575.859375 L 0 575.859375 Z M 0 288 "/></clipPath><clipPath id="572b9ebf23"><path d="M 366 250 L 1024 250 L 1024 575.859375 L 366 575.859375 Z M 366 250 "/></clipPath><clipPath id="8a1e433f3b"><path d="M 0 414 L 1024 414 L 1024 575.859375 L 0 575.859375 Z M 0 414 "/></clipPath><filter x="0%" y="0%" width="100%" filterUnits="objectBoundingBox" id="d3c796bf0e" height="100%"><feColorMatrix values="0 0 0 0 1 0 0 0 0 1 0 0 0 0 1 0 0 0 1 0" type="matrix" in="SourceGraphic"/></filter><clipPath id="aa34698c2e"><path d="M 0 0.179688 L 1024 0.179688 L 1024 161.859375 L 0 161.859375 Z M 0 0.179688 "/></clipPath><clipPath id="ed8eafcc66"><rect x="0" width="1024" y="0" height="162"/></clipPath><clipPath id="64732d6957"><path d="M 204 471 L 1024 471 L 1024 575.859375 L 204 575.859375 Z M 204 471 "/></clipPath><clipPath id="df4208b0c8"><path d="M 1 1 L 820 1 L 820 104.859375 L 1 104.859375 Z M 1 1 "/></clipPath><clipPath id="8c41c6633d"><rect x="0" width="820" y="0" height="105"/></clipPath></defs><g id="c9e16a4559"><g clip-rule="nonzero" clip-path="url(#b8d34f1675)"><path style=" stroke:none;fill-rule:nonzero;fill:#ffffff;fill-opacity:1;" d="M 0 0.140625 L 1024 0.140625 L 1024 575.859375 L 0 575.859375 Z M 0 0.140625 "/><path style=" stroke:none;fill-rule:nonzero;fill:#ffffff;fill-opacity:1;" d="M 0 0.140625 L 1024 0.140625 L 1024 575.859375 L 0 575.859375 Z M 0 0.140625 "/></g><g clip-rule="nonzero" clip-path="url(#65c448fbb0)"><path style=" stroke:none;fill-rule:nonzero;fill:#b2d8f9;fill-opacity:1;" d="M 0.0742188 364.421875 C 376.28125 142.535156 733.429688 470.160156 847.816406 556.875 C 962.203125 643.589844 1049.882812 672.984375 1049.882812 672.984375 L 1049.882812 737.652344 L 0.0742188 737.652344 Z M 0.0742188 364.421875 "/></g><g clip-rule="nonzero" clip-path="url(#572b9ebf23)"><path style=" stroke:none;fill-rule:nonzero;fill:#034c8c;fill-opacity:1;" d="M 366.75 737.652344 C 366.75 556.078125 616.730469 526.640625 771.136719 526.640625 C 925.542969 526.640625 1049.882812 274.8125 1049.882812 250.917969 L 1049.882812 737.652344 Z M 366.75 737.652344 "/></g><g clip-rule="nonzero" clip-path="url(#8a1e433f3b)"><g mask="url(#6cf2b7d9b9)" transform="matrix(1,0,0,1,0,414)"><g clip-path="url(#ed8eafcc66)"><g clip-rule="nonzero" clip-path="url(#aa34698c2e)"><path style=" stroke:none;fill-rule:nonzero;fill:#033e8c;fill-opacity:1;" d="M 0.0742188 58.132812 C 160.402344 246.59375 295.53125 17.273438 476.898438 1.277344 C 658.21875 -14.722656 1049.882812 207.5 1049.882812 207.5 L 1049.882812 323.652344 L 0.0742188 323.652344 Z M 0.0742188 58.132812 "/></g></g><mask id="6cf2b7d9b9"><g filter="url(#d3c796bf0e)"><rect x="0" width="1024.5" y="0" height="576" style="fill:#000000;fill-opacity:0.42;stroke:none;"/></g></mask></g></g><g clip-rule="nonzero" clip-path="url(#64732d6957)"><g mask="url(#6387c64db5)" transform="matrix(1,0,0,1,204,471)"><g clip-path="url(#8c41c6633d)"><g clip-rule="nonzero" clip-path="url(#df4208b0c8)"><path style=" stroke:none;fill-rule:nonzero;fill:#033e8c;fill-opacity:1;" d="M 19.390625 266.652344 C 19.390625 266.652344 -46.789062 115.941406 74.523438 23.304688 C 195.839844 -69.328125 517.503906 158.605469 631.46875 153.0625 C 745.4375 147.5625 845.882812 1.132812 845.882812 1.132812 L 845.882812 266.652344 Z M 19.390625 266.652344 "/></g></g><mask id="6387c64db5"><g filter="url(#d3c796bf0e)"><rect x="0" width="1024.5" y="0" height="576" style="fill:#000000;fill-opacity:0.42;stroke:none;"/></g></mask></g></g></g></svg>