<?xml version="1.0" encoding="UTF-8"?>
<svg xmlns="http://www.w3.org/2000/svg" version="1.1" viewBox="0 0 63 63">
  <defs>
    <style>
      .cls-1 {
        fill: #17376d;
      }

      .cls-2 {
        fill: #3a77ff;
      }
    </style>
  </defs>
  <!-- Generator: Adobe Illustrator 28.7.1, SVG Export Plug-In . SVG Version: 1.2.0 Build 142)  -->
  <g>
    <g id="Layer_1">
      <g>
        <g>
          <rect class="cls-2" x="32.66" y="10.36" width="7.87" height="33.16"/>
          <path class="cls-2" d="M16.16,13.27c-7.55,0-13.66,6.12-13.66,13.66s6.12,13.66,13.66,13.66,13.66-6.12,13.66-13.66-6.12-13.66-13.66-13.66ZM16.16,31.08c-2.29,0-4.14-1.85-4.14-4.14s1.85-4.14,4.14-4.14,4.14,1.85,4.14,4.14-1.85,4.14-4.14,4.14h0Z"/>
          <polygon class="cls-2" points="60.43 18.64 55.2 18.64 52.13 21.7 49.06 18.64 43.84 18.64 43.84 23.95 46.86 26.97 43.84 30 43.84 35.24 49.14 35.24 52.13 32.24 55.13 35.24 60.43 35.24 60.43 30 57.4 26.97 60.43 23.95 60.43 18.64"/>
        </g>
        <g>
          <path class="cls-1" d="M13.72,52.57v-2.1c0-.45-.17-.8-.68-.8-.43,0-.86.37-.86,1.15v1.75h-.39v-2.1c0-.45-.17-.8-.68-.8-.43,0-.86.37-.86,1.15v1.75h-.4v-2.42c0-.24,0-.49-.02-.74h.38v.53s.01,0,.01,0c.13-.22.31-.61,1-.61.28,0,.75.12.85.67h.01c.14-.37.52-.67,1.02-.67.65,0,1.01.45,1.01,1.06v2.18h-.4Z"/>
          <path class="cls-1" d="M17.23,52.47c-.28.11-.63.17-.93.17-1.06,0-1.45-.71-1.45-1.66,0-.97.54-1.66,1.35-1.66.9,0,1.27.72,1.27,1.57v.2h-2.19c0,.67.36,1.21,1.05,1.21.29,0,.71-.12.9-.24v.4ZM17.03,50.76c0-.55-.22-1.1-.81-1.1s-.94.58-.94,1.1h1.75Z"/>
          <path class="cls-1" d="M22.08,52.57v-2.1c0-.45-.17-.8-.68-.8-.43,0-.86.37-.86,1.15v1.75h-.39v-2.1c0-.45-.17-.8-.68-.8-.43,0-.86.37-.86,1.15v1.75h-.39v-2.42c0-.24,0-.49-.02-.74h.38v.53s.01,0,.01,0c.13-.22.31-.61,1-.61.28,0,.75.12.85.67h.01c.15-.37.52-.67,1.02-.67.65,0,1.01.45,1.01,1.06v2.18h-.39Z"/>
          <path class="cls-1" d="M23.4,47.91h.39v2.02s.01,0,.01,0c.06-.15.37-.61,1-.61.94,0,1.32.7,1.32,1.66s-.44,1.66-1.32,1.66c-.46,0-.78-.17-1-.58h-.01s0,.5,0,.5h-.39v-4.65ZM24.74,49.66c-.72,0-.95.74-.95,1.32s.24,1.32.95,1.32c.75,0,.95-.71.95-1.32s-.19-1.32-.95-1.32Z"/>
          <path class="cls-1" d="M29.06,52.47c-.27.11-.63.17-.93.17-1.06,0-1.45-.71-1.45-1.66,0-.97.54-1.66,1.35-1.66.9,0,1.27.72,1.27,1.57v.2h-2.19c0,.67.36,1.21,1.05,1.21.29,0,.71-.12.89-.24v.4ZM28.87,50.76c0-.55-.22-1.1-.81-1.1s-.94.58-.94,1.1h1.75Z"/>
          <path class="cls-1" d="M30.06,50.11c0-.35,0-.48-.03-.71h.4v.61s.01,0,.01,0c.14-.35.41-.68.82-.68.09,0,.21.02.27.04v.41c-.08-.02-.19-.04-.29-.04-.63,0-.8.7-.8,1.27v1.56h-.39v-2.46Z"/>
          <path class="cls-1" d="M35.13,49.33c1.04,0,1.49.79,1.49,1.66,0,.86-.46,1.66-1.49,1.66s-1.49-.79-1.49-1.66c0-.86.46-1.66,1.49-1.66ZM35.13,52.31c.69,0,1.06-.59,1.06-1.32,0-.73-.37-1.32-1.06-1.32s-1.06.59-1.06,1.32c0,.73.37,1.32,1.06,1.32Z"/>
          <path class="cls-1" d="M37.64,49.74h-.65v-.33h.65s0-.23,0-.23c0-.66.02-1.33.85-1.33.12,0,.29.02.37.06l-.03.34c-.08-.04-.2-.07-.31-.07-.54,0-.48.58-.48.95v.27s.72,0,.72,0v.33h-.72s0,2.83,0,2.83h-.39v-2.83Z"/>
          <path class="cls-1" d="M42.47,48.24h.99s1.72,4.33,1.72,4.33h-.97s-.37-.99-.37-.99h-1.78s-.38.99-.38.99h-.91s1.71-4.33,1.71-4.33ZM42.95,49.1h-.01s-.63,1.79-.63,1.79h1.28s-.63-1.79-.63-1.79Z"/>
          <path class="cls-1" d="M48.09,49.03c-.27-.12-.58-.19-.89-.19s-.69.13-.69.6c0,.75,1.92.44,1.92,1.89,0,.95-.76,1.31-1.64,1.31-.48,0-.69-.06-1.12-.17l.08-.78c.3.16.64.27.99.27s.78-.17.78-.56c0-.83-1.92-.48-1.92-1.92,0-.97.76-1.32,1.53-1.32.38,0,.73.05,1.05.16l-.08.71Z"/>
          <path class="cls-1" d="M50.02,48.92h-1.25v-.68h3.39v.68h-1.25s0,3.65,0,3.65h-.88v-3.65Z"/>
          <path class="cls-1" d="M52.63,48.24h.95c.94,0,2.06-.03,2.06,1.17,0,.51-.35.93-.9,1.01h0c.24.03.37.27.46.46l.7,1.69h-.98s-.53-1.35-.53-1.35c-.12-.32-.24-.45-.61-.45h-.28s0,1.8,0,1.8h-.88v-4.33ZM53.51,50.08h.29c.43,0,.93-.06.93-.6,0-.52-.49-.56-.93-.56h-.29s0,1.17,0,1.17Z"/>
          <path class="cls-1" d="M57.79,48.24h.99s1.72,4.33,1.72,4.33h-.97s-.38-.99-.38-.99h-1.77s-.38.99-.38.99h-.91s1.71-4.33,1.71-4.33ZM58.27,49.1h-.01s-.63,1.79-.63,1.79h1.28s-.63-1.79-.63-1.79Z"/>
        </g>
      </g>
    </g>
  </g>
</svg>