<svg width="59" height="34" viewBox="0 0 59 34" fill="none" xmlns="http://www.w3.org/2000/svg">
<path d="M38.53 0.360001H30.66V33.52H38.53V0.360001Z" fill="white"/>
<path d="M14.16 3.27C6.61 3.27 0.5 9.39 0.5 16.93C0.5 24.47 6.62 30.59 14.16 30.59C21.7 30.59 27.82 24.47 27.82 16.93C27.82 9.39 21.7 3.27 14.16 3.27ZM14.16 21.08C11.87 21.08 10.02 19.23 10.02 16.94C10.02 14.65 11.87 12.8 14.16 12.8C16.45 12.8 18.3 14.65 18.3 16.94C18.3 19.23 16.45 21.08 14.16 21.08Z" fill="white"/>
<path d="M58.43 8.64H53.2L50.13 11.7L47.06 8.64H41.84V13.95L44.86 16.97L41.84 20V25.24H47.14L50.13 22.24L53.13 25.24H58.43V20L55.4 16.97L58.43 13.95V8.64Z" fill="white"/>
</svg>
