<svg width="50" height="50" viewBox="0 0 50 50" fill="none" xmlns="http://www.w3.org/2000/svg">
<path d="M25.8359 3C36.972 3 46 12.028 46 23.1641C45.9999 34.3 36.9719 43.3271 25.8359 43.3271C22.5892 43.3271 19.5227 42.5543 16.8057 41.1904L6.25488 43.9668L4.4668 44.4375L5.05176 42.6836L8.26367 33.0459C6.6167 30.1248 5.6729 26.7551 5.67285 23.1641C5.67285 12.0281 14.7 3.00015 25.8359 3Z" stroke="white" stroke-width="2"/>
<path d="M16.9683 9.83856C17.8549 9.08577 19.1202 8.93912 20.1627 9.49091L20.1617 9.49188C20.7233 9.78907 21.2505 10.2509 21.7027 10.7204C22.164 11.1994 22.5947 11.7354 22.9595 12.2272C23.3258 12.721 23.6356 13.1835 23.8531 13.5222C23.9619 13.6915 24.048 13.8312 24.108 13.9294C24.138 13.9785 24.1621 14.0175 24.1783 14.0446C24.1864 14.0582 24.1924 14.0693 24.1969 14.0768C24.199 14.0804 24.2005 14.0835 24.2017 14.0856C24.2024 14.0867 24.2033 14.0879 24.2037 14.0886L24.2047 14.0895L24.2105 14.1003L24.3121 14.2917C24.5387 14.7497 24.6862 15.2893 24.6422 15.8395C24.5905 16.4834 24.2734 17.1001 23.6402 17.4958C23.6056 17.5248 23.5562 17.5663 23.4967 17.6169C23.375 17.7201 23.2116 17.8601 23.0435 18.0075C22.8742 18.156 22.7057 18.3065 22.5719 18.4333C22.4389 18.5592 22.3938 18.6125 22.3941 18.6091C22.0572 19.1106 21.967 19.4853 21.9908 19.777C22.0145 20.0663 22.1633 20.4408 22.6373 20.9147L25.3609 23.6384L28.0855 26.362L28.2584 26.5251C28.6513 26.8712 28.9692 26.9877 29.2222 27.0085C29.4797 27.0296 29.8023 26.9623 30.2193 26.7145L30.4029 26.5974C30.3655 26.6227 30.4093 26.5928 30.566 26.4274C30.6929 26.2935 30.8442 26.1251 30.9928 25.9557C31.1401 25.7877 31.2801 25.6242 31.3834 25.5026L31.5054 25.3571C31.9012 24.7251 32.5177 24.4086 33.1607 24.3571C33.711 24.3132 34.2505 24.4605 34.7086 24.6872L34.9 24.7888L34.9097 24.7946L34.9107 24.7956H34.9117C34.9123 24.796 34.9127 24.797 34.9137 24.7975C34.9159 24.7988 34.9196 24.8002 34.9234 24.8024C34.9309 24.8069 34.9414 24.813 34.9547 24.821C34.9818 24.8372 35.0208 24.8613 35.0699 24.8913C35.1681 24.9513 35.3084 25.0381 35.4781 25.1472C35.8167 25.3647 36.2793 25.6736 36.773 26.0397C37.265 26.4046 37.8008 26.8353 38.2799 27.2966C38.7495 27.7488 39.2122 28.276 39.5094 28.8376H39.5084C40.097 29.9491 39.8924 31.3137 39.0045 32.2038L39.0035 32.2048L37.8004 33.4069C35.6629 35.5444 33.2843 36.1483 30.898 35.5964C28.5996 35.0647 26.4075 33.4886 24.4469 31.528L17.4722 24.5534C15.5116 22.5928 13.9345 20.4007 13.4029 18.1022C12.851 15.716 13.4558 13.3374 15.5933 11.1999L16.7955 9.99774L16.9683 9.83856Z" stroke="white" stroke-width="2"/>
</svg>
