<svg xmlns="http://www.w3.org/2000/svg" xmlns:xlink="http://www.w3.org/1999/xlink" width="60" zoomAndPan="magnify" viewBox="0 0 45 44.999999" height="60" preserveAspectRatio="xMidYMid meet" version="1.2"><defs><clipPath id="e7d1112e52"><path d="M 1.125 0.675781 L 44.625 0.675781 L 44.625 44 L 1.125 44 Z M 1.125 0.675781 "/></clipPath></defs><g id="4353d82cd6"><g clip-rule="nonzero" clip-path="url(#e7d1112e52)"><path style=" stroke:none;fill-rule:nonzero;fill:#ffc107;fill-opacity:1;" d="M 44.320312 22.273438 C 44.320312 22.980469 44.285156 23.6875 44.214844 24.390625 C 44.148438 25.09375 44.042969 25.792969 43.90625 26.484375 C 43.765625 27.179688 43.59375 27.863281 43.390625 28.542969 C 43.183594 29.21875 42.945312 29.882812 42.675781 30.539062 C 42.40625 31.191406 42.105469 31.828125 41.769531 32.453125 C 41.4375 33.078125 41.074219 33.683594 40.679688 34.273438 C 40.289062 34.859375 39.867188 35.425781 39.417969 35.972656 C 38.96875 36.519531 38.496094 37.042969 37.996094 37.542969 C 37.496094 38.042969 36.972656 38.519531 36.425781 38.96875 C 35.878906 39.417969 35.308594 39.835938 34.722656 40.230469 C 34.132812 40.625 33.527344 40.988281 32.902344 41.320312 C 32.28125 41.652344 31.640625 41.957031 30.988281 42.226562 C 30.335938 42.496094 29.667969 42.734375 28.992188 42.941406 C 28.316406 43.144531 27.628906 43.316406 26.9375 43.457031 C 26.242188 43.59375 25.542969 43.695312 24.839844 43.765625 C 24.136719 43.835938 23.429688 43.871094 22.722656 43.871094 C 22.015625 43.871094 21.308594 43.835938 20.605469 43.765625 C 19.902344 43.695312 19.203125 43.59375 18.507812 43.457031 C 17.816406 43.316406 17.128906 43.144531 16.453125 42.941406 C 15.777344 42.734375 15.109375 42.496094 14.457031 42.226562 C 13.804688 41.957031 13.164062 41.652344 12.542969 41.320312 C 11.917969 40.988281 11.3125 40.625 10.722656 40.230469 C 10.136719 39.835938 9.566406 39.417969 9.019531 38.96875 C 8.472656 38.519531 7.949219 38.042969 7.449219 37.542969 C 6.949219 37.042969 6.476562 36.519531 6.027344 35.972656 C 5.578125 35.425781 5.15625 34.859375 4.765625 34.273438 C 4.371094 33.683594 4.007812 33.078125 3.675781 32.453125 C 3.339844 31.828125 3.039062 31.191406 2.769531 30.539062 C 2.5 29.882812 2.261719 29.21875 2.054688 28.542969 C 1.851562 27.863281 1.679688 27.179688 1.539062 26.484375 C 1.402344 25.792969 1.296875 25.09375 1.230469 24.390625 C 1.160156 23.6875 1.125 22.980469 1.125 22.273438 C 1.125 21.566406 1.160156 20.859375 1.230469 20.15625 C 1.296875 19.453125 1.402344 18.753906 1.539062 18.058594 C 1.679688 17.367188 1.851562 16.679688 2.054688 16.003906 C 2.261719 15.328125 2.5 14.660156 2.769531 14.007812 C 3.039062 13.355469 3.339844 12.714844 3.675781 12.089844 C 4.007812 11.46875 4.371094 10.863281 4.765625 10.273438 C 5.15625 9.683594 5.578125 9.117188 6.027344 8.570312 C 6.476562 8.023438 6.949219 7.5 7.449219 7 C 7.949219 6.5 8.472656 6.027344 9.019531 5.578125 C 9.566406 5.128906 10.136719 4.707031 10.722656 4.316406 C 11.3125 3.921875 11.917969 3.558594 12.542969 3.226562 C 13.164062 2.890625 13.804688 2.589844 14.457031 2.320312 C 15.109375 2.046875 15.777344 1.808594 16.453125 1.605469 C 17.128906 1.398438 17.816406 1.226562 18.507812 1.089844 C 19.203125 0.953125 19.902344 0.847656 20.605469 0.777344 C 21.308594 0.710938 22.015625 0.675781 22.722656 0.675781 C 23.429688 0.675781 24.136719 0.710938 24.839844 0.777344 C 25.542969 0.847656 26.242188 0.953125 26.9375 1.089844 C 27.628906 1.226562 28.316406 1.398438 28.992188 1.605469 C 29.667969 1.808594 30.335938 2.046875 30.988281 2.320312 C 31.640625 2.589844 32.28125 2.890625 32.902344 3.226562 C 33.527344 3.558594 34.132812 3.921875 34.722656 4.316406 C 35.308594 4.707031 35.878906 5.128906 36.425781 5.578125 C 36.972656 6.027344 37.496094 6.5 37.996094 7 C 38.496094 7.5 38.96875 8.023438 39.417969 8.570312 C 39.867188 9.117188 40.289062 9.683594 40.679688 10.273438 C 41.074219 10.863281 41.4375 11.46875 41.769531 12.089844 C 42.105469 12.714844 42.40625 13.355469 42.675781 14.007812 C 42.945312 14.660156 43.183594 15.328125 43.390625 16.003906 C 43.59375 16.679688 43.765625 17.367188 43.90625 18.058594 C 44.042969 18.753906 44.148438 19.453125 44.214844 20.15625 C 44.285156 20.859375 44.320312 21.566406 44.320312 22.273438 Z M 44.320312 22.273438 "/></g><path style=" stroke:none;fill-rule:nonzero;fill:#fffffe;fill-opacity:1;" d="M 26.082031 12.023438 L 26.082031 14.605469 L 25.238281 14.605469 L 25.238281 12.839844 C 25.238281 12.679688 25.101562 12.546875 24.941406 12.546875 L 20.503906 12.546875 C 20.34375 12.546875 20.207031 12.679688 20.207031 12.839844 L 20.207031 14.605469 L 19.363281 14.605469 L 19.363281 12.023438 C 19.363281 11.8125 19.535156 11.640625 19.746094 11.640625 L 25.710938 11.640625 C 25.910156 11.640625 26.082031 11.8125 26.082031 12.023438 Z M 26.082031 12.023438 "/><path style=" stroke:none;fill-rule:nonzero;fill:#fffffe;fill-opacity:1;" d="M 23.703125 21.378906 L 23.703125 23.351562 C 23.703125 23.890625 23.261719 24.332031 22.722656 24.332031 C 22.183594 24.332031 21.742188 23.890625 21.742188 23.351562 L 21.742188 21.378906 Z M 23.703125 21.378906 "/><path style=" stroke:none;fill-rule:nonzero;fill:#fffffe;fill-opacity:1;" d="M 35.109375 16.148438 L 35.109375 20.890625 C 35.109375 21.808594 34.355469 22.558594 33.4375 22.558594 L 24.292969 22.558594 L 24.292969 21.082031 C 24.292969 20.921875 24.15625 20.789062 23.996094 20.789062 L 21.449219 20.789062 C 21.289062 20.789062 21.152344 20.921875 21.152344 21.082031 L 21.152344 22.558594 L 12.007812 22.558594 C 11.089844 22.558594 10.335938 21.808594 10.335938 20.890625 L 10.335938 16.148438 C 10.335938 15.617188 10.769531 15.1875 11.300781 15.1875 L 34.144531 15.1875 C 34.675781 15.195312 35.109375 15.625 35.109375 16.148438 Z M 35.109375 16.148438 "/><path style=" stroke:none;fill-rule:nonzero;fill:#fffffe;fill-opacity:1;" d="M 35.109375 22.417969 L 35.109375 31.949219 C 35.109375 32.480469 34.675781 32.910156 34.144531 32.910156 L 11.300781 32.910156 C 10.769531 32.910156 10.335938 32.480469 10.335938 31.949219 L 10.335938 22.417969 C 10.75 22.871094 11.351562 23.160156 12.007812 23.160156 L 21.152344 23.160156 L 21.152344 23.359375 C 21.152344 24.222656 21.855469 24.929688 22.722656 24.929688 C 23.582031 24.929688 24.292969 24.230469 24.292969 23.359375 L 24.292969 23.160156 L 33.4375 23.160156 C 34.09375 23.148438 34.695312 22.863281 35.109375 22.417969 Z M 35.109375 22.417969 "/></g></svg>