<svg xmlns="http://www.w3.org/2000/svg" xmlns:xlink="http://www.w3.org/1999/xlink" width="60" zoomAndPan="magnify" viewBox="0 0 45 44.999999" height="60" preserveAspectRatio="xMidYMid meet" version="1.2"><defs><clipPath id="6545ba1d5e"><path d="M 0.84375 0.84375 L 44.15625 0.84375 L 44.15625 44.15625 L 0.84375 44.15625 Z M 0.84375 0.84375 "/></clipPath><clipPath id="1872bb99dd"><path d="M 22.5 0.84375 C 10.539062 0.84375 0.84375 10.539062 0.84375 22.5 C 0.84375 34.460938 10.539062 44.15625 22.5 44.15625 C 34.460938 44.15625 44.15625 34.460938 44.15625 22.5 C 44.15625 10.539062 34.460938 0.84375 22.5 0.84375 Z M 22.5 0.84375 "/></clipPath><clipPath id="10eddedd03"><path d="M 7.199219 5.953125 L 39.449219 5.953125 L 39.449219 37.453125 L 7.199219 37.453125 Z M 7.199219 5.953125 "/></clipPath><clipPath id="9b71ac08e2"><path d="M 7.199219 5.953125 L 23 5.953125 L 23 30 L 7.199219 30 Z M 7.199219 5.953125 "/></clipPath></defs><g id="d943452be8"><g clip-rule="nonzero" clip-path="url(#6545ba1d5e)"><g clip-rule="nonzero" clip-path="url(#1872bb99dd)"><path style=" stroke:none;fill-rule:nonzero;fill:#ffc107;fill-opacity:1;" d="M 0.84375 0.84375 L 44.15625 0.84375 L 44.15625 44.15625 L 0.84375 44.15625 Z M 0.84375 0.84375 "/></g></g><g clip-rule="nonzero" clip-path="url(#10eddedd03)"><path style=" stroke:none;fill-rule:evenodd;fill:#fffffe;fill-opacity:1;" d="M 30.574219 37.445312 C 28.480469 37.445312 26.144531 36.894531 23.808594 35.910156 C 20.730469 34.617188 17.71875 32.527344 15.074219 29.820312 C 12.429688 27.175781 10.335938 24.222656 9.046875 21.210938 C 7.628906 17.886719 7.199219 14.691406 7.816406 11.921875 C 7.875 11.859375 7.875 11.738281 7.9375 11.675781 L 13.472656 6.078125 C 13.535156 6.015625 13.660156 5.957031 13.78125 5.957031 C 13.902344 5.957031 14.027344 6.015625 14.089844 6.078125 L 22.144531 14.074219 C 22.332031 14.257812 22.332031 14.503906 22.144531 14.691406 L 17.472656 19.425781 C 17.53125 20.472656 18.761719 22.316406 20.484375 24.101562 C 22.390625 26.066406 24.484375 27.421875 25.589844 27.542969 L 30.265625 22.871094 C 30.449219 22.746094 30.695312 22.746094 30.878906 22.871094 L 38.9375 30.867188 C 39 30.988281 39.0625 31.050781 39.0625 31.171875 C 39.0625 31.296875 39 31.417969 38.9375 31.480469 L 33.402344 37.015625 C 33.339844 37.078125 33.277344 37.140625 33.21875 37.140625 C 32.355469 37.324219 31.496094 37.445312 30.574219 37.445312 Z M 30.574219 37.445312 "/></g><g clip-rule="nonzero" clip-path="url(#9b71ac08e2)"><path style=" stroke:none;fill-rule:evenodd;fill:#fffffe;fill-opacity:1;" d="M 14.582031 29.390625 C 12.183594 26.867188 10.273438 24.039062 9.046875 21.210938 C 7.628906 17.886719 7.199219 14.691406 7.816406 11.921875 C 7.875 11.859375 7.875 11.738281 7.9375 11.675781 L 13.472656 6.078125 C 13.535156 6.015625 13.660156 5.957031 13.78125 5.957031 C 13.902344 5.957031 14.027344 6.015625 14.089844 6.078125 L 22.144531 14.074219 C 22.332031 14.257812 22.332031 14.503906 22.144531 14.691406 L 17.472656 19.425781 C 17.53125 20.410156 18.578125 22.070312 20.179688 23.792969 Z M 14.582031 29.390625 "/></g></g></svg>