<svg xmlns="http://www.w3.org/2000/svg" xmlns:xlink="http://www.w3.org/1999/xlink" width="60" zoomAndPan="magnify" viewBox="0 0 45 44.999999" height="60" preserveAspectRatio="xMidYMid meet" version="1.2"><defs><clipPath id="8653a2330f"><path d="M 0 0.84375 L 44.160156 0.84375 L 44.160156 44.15625 L 0 44.15625 Z M 0 0.84375 "/></clipPath><clipPath id="a15ea66149"><path d="M 22.078125 0.84375 C 9.882812 0.84375 0 10.539062 0 22.5 C 0 34.460938 9.882812 44.15625 22.078125 44.15625 C 34.273438 44.15625 44.15625 34.460938 44.15625 22.5 C 44.15625 10.539062 34.273438 0.84375 22.078125 0.84375 Z M 22.078125 0.84375 "/></clipPath><clipPath id="b10dd7acbc"><path d="M 16 7.445312 L 37.445312 7.445312 L 37.445312 36 L 16 36 Z M 16 7.445312 "/></clipPath><clipPath id="d27d8e9f07"><path d="M 7.445312 9 L 29 9 L 29 37.445312 L 7.445312 37.445312 Z M 7.445312 9 "/></clipPath></defs><g id="09a7948191"><g clip-rule="nonzero" clip-path="url(#8653a2330f)"><g clip-rule="nonzero" clip-path="url(#a15ea66149)"><path style=" stroke:none;fill-rule:nonzero;fill:#ffc107;fill-opacity:1;" d="M 0 0.84375 L 44.160156 0.84375 L 44.160156 44.15625 L 0 44.15625 Z M 0 0.84375 "/></g></g><g clip-rule="nonzero" clip-path="url(#b10dd7acbc)"><path style=" stroke:none;fill-rule:nonzero;fill:#fafafa;fill-opacity:1;" d="M 27.132812 7.445312 C 21.445312 7.445312 16.820312 12.179688 16.820312 18.003906 C 16.820312 25.300781 26.066406 34.878906 26.460938 35.285156 C 26.636719 35.464844 26.878906 35.570312 27.132812 35.570312 C 27.382812 35.570312 27.625 35.464844 27.800781 35.285156 C 28.195312 34.878906 37.445312 25.300781 37.445312 18.003906 C 37.445312 12.179688 32.816406 7.445312 27.132812 7.445312 Z M 27.132812 7.445312 "/></g><path style=" stroke:none;fill-rule:nonzero;fill:#ffc107;fill-opacity:1;" d="M 31.820312 17.757812 C 31.820312 18.0625 31.789062 18.367188 31.726562 18.671875 C 31.667969 18.972656 31.578125 19.265625 31.460938 19.550781 C 31.34375 19.835938 31.199219 20.105469 31.027344 20.359375 C 30.855469 20.617188 30.664062 20.851562 30.445312 21.070312 C 30.226562 21.289062 29.992188 21.480469 29.734375 21.652344 C 29.480469 21.824219 29.210938 21.96875 28.925781 22.085938 C 28.640625 22.203125 28.347656 22.292969 28.046875 22.351562 C 27.742188 22.414062 27.4375 22.445312 27.132812 22.445312 C 26.824219 22.445312 26.519531 22.414062 26.214844 22.351562 C 25.914062 22.292969 25.621094 22.203125 25.335938 22.085938 C 25.050781 21.96875 24.78125 21.824219 24.527344 21.652344 C 24.269531 21.480469 24.035156 21.289062 23.816406 21.070312 C 23.597656 20.851562 23.40625 20.617188 23.234375 20.359375 C 23.0625 20.105469 22.917969 19.835938 22.800781 19.550781 C 22.683594 19.265625 22.59375 18.972656 22.535156 18.671875 C 22.472656 18.367188 22.445312 18.0625 22.445312 17.757812 C 22.445312 17.449219 22.472656 17.144531 22.535156 16.839844 C 22.59375 16.539062 22.683594 16.246094 22.800781 15.960938 C 22.917969 15.675781 23.0625 15.40625 23.234375 15.152344 C 23.40625 14.894531 23.597656 14.660156 23.816406 14.441406 C 24.035156 14.222656 24.269531 14.03125 24.527344 13.859375 C 24.78125 13.6875 25.050781 13.542969 25.335938 13.425781 C 25.621094 13.308594 25.914062 13.21875 26.214844 13.160156 C 26.519531 13.097656 26.824219 13.070312 27.132812 13.070312 C 27.4375 13.070312 27.742188 13.097656 28.046875 13.160156 C 28.347656 13.21875 28.640625 13.308594 28.925781 13.425781 C 29.210938 13.542969 29.480469 13.6875 29.734375 13.859375 C 29.992188 14.03125 30.226562 14.222656 30.445312 14.441406 C 30.664062 14.660156 30.855469 14.894531 31.027344 15.152344 C 31.199219 15.40625 31.34375 15.675781 31.460938 15.960938 C 31.578125 16.246094 31.667969 16.539062 31.726562 16.839844 C 31.789062 17.144531 31.820312 17.449219 31.820312 17.757812 Z M 31.820312 17.757812 "/><path style=" stroke:none;fill-rule:nonzero;fill:#ffc107;fill-opacity:1;" d="M 24.378906 32.960938 C 27.082031 29.261719 29.945312 24.304688 29.945312 19.878906 C 29.945312 14.804688 26.945312 10.433594 22.660156 8.503906 C 19.210938 10.210938 16.820312 13.824219 16.820312 18.003906 C 16.820312 23.226562 21.542969 29.601562 24.378906 32.960938 Z M 24.378906 32.960938 "/><g clip-rule="nonzero" clip-path="url(#d27d8e9f07)"><path style=" stroke:none;fill-rule:nonzero;fill:#fafafa;fill-opacity:1;" d="M 17.757812 9.320312 C 12.070312 9.320312 7.445312 14.054688 7.445312 19.878906 C 7.445312 27.175781 16.691406 36.753906 17.085938 37.160156 C 17.261719 37.339844 17.503906 37.445312 17.757812 37.445312 C 18.007812 37.445312 18.25 37.339844 18.425781 37.160156 C 18.820312 36.753906 28.070312 27.175781 28.070312 19.878906 C 28.070312 14.054688 23.441406 9.320312 17.757812 9.320312 Z M 17.757812 9.320312 "/></g><path style=" stroke:none;fill-rule:nonzero;fill:#ffc107;fill-opacity:1;" d="M 22.445312 19.632812 C 22.445312 19.9375 22.414062 20.242188 22.351562 20.546875 C 22.292969 20.847656 22.203125 21.140625 22.085938 21.425781 C 21.96875 21.710938 21.824219 21.980469 21.652344 22.234375 C 21.480469 22.492188 21.289062 22.726562 21.070312 22.945312 C 20.851562 23.164062 20.617188 23.355469 20.359375 23.527344 C 20.105469 23.699219 19.835938 23.84375 19.550781 23.960938 C 19.265625 24.078125 18.972656 24.167969 18.671875 24.226562 C 18.367188 24.289062 18.0625 24.320312 17.757812 24.320312 C 17.449219 24.320312 17.144531 24.289062 16.839844 24.226562 C 16.539062 24.167969 16.246094 24.078125 15.960938 23.960938 C 15.675781 23.84375 15.40625 23.699219 15.152344 23.527344 C 14.894531 23.355469 14.660156 23.164062 14.441406 22.945312 C 14.222656 22.726562 14.03125 22.492188 13.859375 22.234375 C 13.6875 21.980469 13.542969 21.710938 13.425781 21.425781 C 13.308594 21.140625 13.21875 20.847656 13.160156 20.546875 C 13.097656 20.242188 13.070312 19.9375 13.070312 19.632812 C 13.070312 19.324219 13.097656 19.019531 13.160156 18.714844 C 13.21875 18.414062 13.308594 18.121094 13.425781 17.835938 C 13.542969 17.550781 13.6875 17.28125 13.859375 17.027344 C 14.03125 16.769531 14.222656 16.535156 14.441406 16.316406 C 14.660156 16.097656 14.894531 15.90625 15.152344 15.734375 C 15.40625 15.5625 15.675781 15.417969 15.960938 15.300781 C 16.246094 15.183594 16.539062 15.09375 16.839844 15.035156 C 17.144531 14.972656 17.449219 14.945312 17.757812 14.945312 C 18.0625 14.945312 18.367188 14.972656 18.671875 15.035156 C 18.972656 15.09375 19.265625 15.183594 19.550781 15.300781 C 19.835938 15.417969 20.105469 15.5625 20.359375 15.734375 C 20.617188 15.90625 20.851562 16.097656 21.070312 16.316406 C 21.289062 16.535156 21.480469 16.769531 21.652344 17.027344 C 21.824219 17.28125 21.96875 17.550781 22.085938 17.835938 C 22.203125 18.121094 22.292969 18.414062 22.351562 18.714844 C 22.414062 19.019531 22.445312 19.324219 22.445312 19.632812 Z M 22.445312 19.632812 "/></g></svg>